<?xml version="1.0" standalone="no"?>
<!DOCTYPE svg PUBLIC "-//W3C//DTD SVG 1.1//EN"
"http://www.w3.org/Graphics/SVG/1.1/DTD/svg11.dtd">
<svg height="600" version="1.1" width="800" xmlns="http://www.w3.org/2000/svg"><g><rect fill="#f9f9f9" height="600" width="800" x="0" y="0" /><g transform="translate(40 40)"><g transform="translate(62 0)"><text fill="#333" font-family="Monaco" font-size="16" x="0" y="0">Charts: 10000Bx100n</text><g transform="translate(0 20)"><g transform="translate(0 0)"><rect fill="#ff0000" height="10" width="10" x="0" y="-10" /><text fill="#666" font-family="Monaco" font-size="14" x="14" y="0">10000Kb</text></g><g transform="translate(102 0)"><rect fill="#ff0000" height="10" width="10" x="0" y="-10" /><text fill="#666" font-family="Monaco" font-size="14" x="14" y="0">2832Kb</text></g><g transform="translate(196 0)"><rect fill="#ff0000" height="10" width="10" x="0" y="-10" /><text fill="#666" font-family="Monaco" font-size="14" x="14" y="0">1808Kb</text></g><g transform="translate(290 0)"><rect fill="#ff0000" height="10" width="10" x="0" y="-10" /><text fill="#666" font-family="Monaco" font-size="14" x="14" y="0">7952Kb</text></g><g transform="translate(384 0)"><rect fill="#ff0000" height="10" width="10" x="0" y="-10" /><text fill="#666" font-family="Monaco" font-size="14" x="14" y="0">3856Kb</text></g><g transform="translate(478 0)"><rect fill="#ff0000" height="10" width="10" x="0" y="-10" /><text fill="#666" font-family="Monaco" font-size="14" x="14" y="0">5904Kb</text></g><g transform="translate(572 0)"><rect fill="#ff0000" height="10" width="10" x="0" y="-10" /><text fill="#666" font-family="Monaco" font-size="14" x="14" y="0">6928Kb</text></g><g transform="translate(666 0)"><rect fill="#ff0000" height="10" width="10" x="0" y="-10" /><text fill="#666" font-family="Monaco" font-size="14" x="14" y="0">4880Kb</text></g><g transform="translate(0 18)"><rect fill="#ff0000" height="10" width="10" x="0" y="-10" /><text fill="#666" font-family="Monaco" font-size="14" x="14" y="0">8976Kb</text></g></g></g><g transform="translate(0 56)"><g transform="translate(62 0)"><g class="axis bottom"><text dy="1em" fill="#666" font-family="Monaco" text-anchor="middle" transform="" x="329.0" y="450.0">Sample Number</text><g class="tick"><line stroke="#eee" stroke-width="1" x1="164.50" x2="164.50" y1="0" y2="416.0" /><text dy="1em" fill="#9c9c9c" font-family="Monaco" text-anchor="middle" x="164.50" y="420.0">25</text></g><g class="tick"><line stroke="#eee" stroke-width="1" x1="329.0" x2="329.0" y1="0" y2="416.0" /><text dy="1em" fill="#9c9c9c" font-family="Monaco" text-anchor="middle" x="329.0" y="420.0">50</text></g><g class="tick"><line stroke="#eee" stroke-width="1" x1="493.50" x2="493.50" y1="0" y2="416.0" /><text dy="1em" fill="#9c9c9c" font-family="Monaco" text-anchor="middle" x="493.50" y="420.0">75</text></g><g class="tick"><line stroke="#eee" stroke-width="1" x1="658" x2="658" y1="0" y2="416.0" /><text dy="1em" fill="#9c9c9c" font-family="Monaco" text-anchor="middle" x="658" y="420.0">100</text></g><g class="tick"><line stroke="#a8a8a8" stroke-width="1" x1="0" x2="0" y1="0" y2="416.0" /><text dy="1em" fill="#9c9c9c" font-family="Monaco" text-anchor="middle" x="0" y="420.0">0</text></g></g><g class="axis left"><text dy="" fill="#666" font-family="Monaco" text-anchor="middle" transform="rotate(270 -40 206)" x="-40" y="206.0">nanoseconds</text><g class="tick"><line stroke="#eee" stroke-width="1" x1="-4" x2="658.0" y1="329.6" y2="329.6" /><text dy="0.32em" fill="#9c9c9c" font-family="Monaco" text-anchor="end" x="-8" y="329.6">25</text></g><g class="tick"><line stroke="#eee" stroke-width="1" x1="-4" x2="658.0" y1="247.2" y2="247.2" /><text dy="0.32em" fill="#9c9c9c" font-family="Monaco" text-anchor="end" x="-8" y="247.2">50</text></g><g class="tick"><line stroke="#eee" stroke-width="1" x1="-4" x2="658.0" y1="164.8" y2="164.8" /><text dy="0.32em" fill="#9c9c9c" font-family="Monaco" text-anchor="end" x="-8" y="164.8">75</text></g><g class="tick"><line stroke="#eee" stroke-width="1" x1="-4" x2="658.0" y1="82.4" y2="82.4" /><text dy="0.32em" fill="#9c9c9c" font-family="Monaco" text-anchor="end" x="-8" y="82.4">100</text></g><g class="tick"><line stroke="#eee" stroke-width="1" x1="-4" x2="658.0" y1="0" y2="0" /><text dy="0.32em" fill="#9c9c9c" font-family="Monaco" text-anchor="end" x="-8" y="0">125</text></g><g class="tick"><line stroke="#a8a8a8" stroke-width="1" x1="-4" x2="658.0" y1="412" y2="412" /><text dy="0.32em" fill="#9c9c9c" font-family="Monaco" text-anchor="end" x="-8" y="412">0</text></g></g><g><g class="series lines"><path d="M 0 326.304 L 6.58 313.12 L 13.16 299.936 L 19.74 323.008 L 26.32 346.08 L 32.90 313.12 L 39.48 329.6 L 46.06 336.192 L 52.64 316.416 L 59.22 329.6 L 65.8 306.528 L 72.38 309.824 L 78.96 329.6 L 85.54 329.6 L 92.12 336.192 L 98.70 332.896 L 105.28 326.304 L 111.86 346.08 L 118.44 316.416 L 125.02 329.6 L 131.6 339.488 L 138.18 329.6 L 144.76 323.008 L 151.34 332.896 L 157.92 329.6 L 164.50 339.488 L 171.08 336.192 L 177.66 329.6 L 184.24 319.712 L 190.82 332.896 L 197.4 306.528 L 203.98 309.824 L 210.56 316.416 L 217.14 303.232 L 223.72 339.488 L 230.30 306.528 L 236.88 316.416 L 243.46 313.12 L 250.04 329.6 L 256.62 306.528 L 263.2 346.08 L 269.78 332.896 L 276.36 303.232 L 282.94 326.304 L 289.52 323.008 L 296.10 336.192 L 302.68 329.6 L 309.26 319.712 L 315.84 309.824 L 322.42 313.12 L 329.0 306.528 L 335.58 316.416 L 342.16 309.824 L 348.74 326.304 L 355.32 323.008 L 361.90 306.528 L 368.48 329.6 L 375.06 332.896 L 381.64 336.192 L 388.22 306.528 L 394.8 306.528 L 401.38 306.528 L 407.96 339.488 L 414.54 309.824 L 421.12 313.12 L 427.70 319.712 L 434.28 309.824 L 440.86 323.008 L 447.44 303.232 L 454.02 296.64 L 460.6 290.048 L 467.18 323.008 L 473.76 306.528 L 480.34 296.64 L 486.92 306.528 L 493.50 309.824 L 500.08 329.6 L 506.66 306.528 L 513.24 306.528 L 519.82 303.232 L 526.4 293.344 L 532.98 329.6 L 539.56 336.192 L 546.14 303.232 L 552.72 323.008 L 559.30 316.416 L 565.88 290.048 L 572.46 326.304 L 579.04 303.232 L 585.62 336.192 L 592.2 316.416 L 598.78 296.64 L 605.36 306.528 L 611.94 313.12 L 618.52 286.752 L 625.10 309.824 L 631.68 296.64 L 638.26 316.416 L 644.84 319.712 L 651.42 329.6" fill="none" stroke="#ff0000" stroke-width="2" /></g><g class="series lines"><path d="M 0 349.376 L 6.58 349.376 L 13.16 336.192 L 19.74 346.08 L 26.32 339.488 L 32.90 313.12 L 39.48 336.192 L 46.06 336.192 L 52.64 349.376 L 59.22 352.672 L 65.8 349.376 L 72.38 336.192 L 78.96 339.488 L 85.54 349.376 L 92.12 336.192 L 98.70 336.192 L 105.28 336.192 L 111.86 349.376 L 118.44 349.376 L 125.02 339.488 L 131.6 342.784 L 138.18 349.376 L 144.76 336.192 L 151.34 349.376 L 157.92 339.488 L 164.50 349.376 L 171.08 349.376 L 177.66 349.376 L 184.24 336.192 L 190.82 336.192 L 197.4 349.376 L 203.98 339.488 L 210.56 336.192 L 217.14 349.376 L 223.72 339.488 L 230.30 349.376 L 236.88 349.376 L 243.46 352.672 L 250.04 339.488 L 256.62 336.192 L 263.2 336.192 L 269.78 339.488 L 276.36 336.192 L 282.94 339.488 L 289.52 349.376 L 296.10 336.192 L 302.68 349.376 L 309.26 296.64 L 315.84 339.488 L 322.42 349.376 L 329.0 349.376 L 335.58 339.488 L 342.16 296.64 L 348.74 336.192 L 355.32 336.192 L 361.90 339.488 L 368.48 349.376 L 375.06 349.376 L 381.64 349.376 L 388.22 355.968 L 394.8 309.824 L 401.38 336.192 L 407.96 352.672 L 414.54 349.376 L 421.12 336.192 L 427.70 342.784 L 434.28 355.968 L 440.86 352.672 L 447.44 336.192 L 454.02 349.376 L 460.6 339.488 L 467.18 339.488 L 473.76 349.376 L 480.34 349.376 L 486.92 336.192 L 493.50 339.488 L 500.08 349.376 L 506.66 349.376 L 513.24 336.192 L 519.82 336.192 L 526.4 336.192 L 532.98 339.488 L 539.56 349.376 L 546.14 336.192 L 552.72 352.672 L 559.30 355.968 L 565.88 349.376 L 572.46 336.192 L 579.04 339.488 L 585.62 336.192 L 592.2 349.376 L 598.78 352.672 L 605.36 339.488 L 611.94 336.192 L 618.52 349.376 L 625.10 342.784 L 631.68 336.192 L 638.26 349.376 L 644.84 336.192 L 651.42 339.488" fill="none" stroke="#ff0000" stroke-width="2" /></g><g class="series lines"><path d="M 0 75.808 L 6.58 283.456 L 13.16 349.376 L 19.74 336.192 L 26.32 313.12 L 32.90 313.12 L 39.48 323.008 L 46.06 303.232 L 52.64 299.936 L 59.22 332.896 L 65.8 306.528 L 72.38 329.6 L 78.96 303.232 L 85.54 332.896 L 92.12 201.056 L 98.70 306.528 L 105.28 326.304 L 111.86 329.6 L 118.44 306.528 L 125.02 329.6 L 131.6 309.824 L 138.18 313.12 L 144.76 309.824 L 151.34 316.416 L 157.92 309.824 L 164.50 306.528 L 171.08 306.528 L 177.66 313.12 L 184.24 306.528 L 190.82 306.528 L 197.4 303.232 L 203.98 342.784 L 210.56 306.528 L 217.14 313.12 L 223.72 296.64 L 230.30 323.008 L 236.88 319.712 L 243.46 309.824 L 250.04 303.232 L 256.62 303.232 L 263.2 306.528 L 269.78 329.6 L 276.36 309.824 L 282.94 342.784 L 289.52 303.232 L 296.10 326.304 L 302.68 299.936 L 309.26 316.416 L 315.84 309.824 L 322.42 316.416 L 329.0 316.416 L 335.58 319.712 L 342.16 306.528 L 348.74 326.304 L 355.32 309.824 L 361.90 309.824 L 368.48 303.232 L 375.06 316.416 L 381.64 313.12 L 388.22 329.6 L 394.8 309.824 L 401.38 326.304 L 407.96 299.936 L 414.54 319.712 L 421.12 309.824 L 427.70 309.824 L 434.28 303.232 L 440.86 309.824 L 447.44 313.12 L 454.02 319.712 L 460.6 299.936 L 467.18 339.488 L 473.76 336.192 L 480.34 339.488 L 486.92 339.488 L 493.50 349.376 L 500.08 349.376 L 506.66 336.192 L 513.24 352.672 L 519.82 352.672 L 526.4 352.672 L 532.98 339.488 L 539.56 349.376 L 546.14 349.376 L 552.72 349.376 L 559.30 352.672 L 565.88 336.192 L 572.46 336.192 L 579.04 339.488 L 585.62 349.376 L 592.2 352.672 L 598.78 339.488 L 605.36 349.376 L 611.94 352.672 L 618.52 339.488 L 625.10 336.192 L 631.68 349.376 L 638.26 349.376 L 644.84 349.376 L 651.42 349.376" fill="none" stroke="#ff0000" stroke-width="2" /></g><g class="series lines"><path d="M 0 316.416 L 6.58 306.528 L 13.16 276.864 L 19.74 306.528 L 26.32 283.456 L 32.90 323.008 L 39.48 323.008 L 46.06 293.344 L 52.64 296.64 L 59.22 323.008 L 65.8 293.344 L 72.38 280.16 L 78.96 329.6 L 85.54 286.752 L 92.12 283.456 L 98.70 316.416 L 105.28 296.64 L 111.86 280.16 L 118.44 306.528 L 125.02 296.64 L 131.6 280.16 L 138.18 313.12 L 144.76 303.232 L 151.34 273.568 L 157.92 273.568 L 164.50 313.12 L 171.08 316.416 L 177.66 319.712 L 184.24 299.936 L 190.82 260.384 L 197.4 276.864 L 203.98 283.456 L 210.56 309.824 L 217.14 273.568 L 223.72 286.752 L 230.30 290.048 L 236.88 280.16 L 243.46 276.864 L 250.04 280.16 L 256.62 296.64 L 263.2 276.864 L 269.78 303.232 L 276.36 296.64 L 282.94 306.528 L 289.52 303.232 L 296.10 326.304 L 302.68 323.008 L 309.26 326.304 L 315.84 290.048 L 322.42 309.824 L 329.0 316.416 L 335.58 283.456 L 342.16 296.64 L 348.74 280.16 L 355.32 313.12 L 361.90 280.16 L 368.48 286.752 L 375.06 286.752 L 381.64 316.416 L 388.22 296.64 L 394.8 323.008 L 401.38 286.752 L 407.96 286.752 L 414.54 290.048 L 421.12 313.12 L 427.70 323.008 L 434.28 303.232 L 440.86 296.64 L 447.44 286.752 L 454.02 306.528 L 460.6 306.528 L 467.18 323.008 L 473.76 316.416 L 480.34 303.232 L 486.92 293.344 L 493.50 283.456 L 500.08 273.568 L 506.66 299.936 L 513.24 290.048 L 519.82 306.528 L 526.4 276.864 L 532.98 293.344 L 539.56 323.008 L 546.14 290.048 L 552.72 296.64 L 559.30 296.64 L 565.88 299.936 L 572.46 290.048 L 579.04 283.456 L 585.62 290.048 L 592.2 286.752 L 598.78 273.568 L 605.36 266.976 L 611.94 280.16 L 618.52 283.456 L 625.10 309.824 L 631.68 309.824 L 638.26 273.568 L 644.84 283.456 L 651.42 290.048" fill="none" stroke="#ff0000" stroke-width="2" /></g><g class="series lines"><path d="M 0 336.192 L 6.58 336.192 L 13.16 352.672 L 19.74 349.376 L 26.32 349.376 L 32.90 352.672 L 39.48 349.376 L 46.06 339.488 L 52.64 339.488 L 59.22 336.192 L 65.8 349.376 L 72.38 342.784 L 78.96 349.376 L 85.54 349.376 L 92.12 349.376 L 98.70 339.488 L 105.28 336.192 L 111.86 336.192 L 118.44 349.376 L 125.02 352.672 L 131.6 339.488 L 138.18 339.488 L 144.76 336.192 L 151.34 336.192 L 157.92 336.192 L 164.50 349.376 L 171.08 339.488 L 177.66 349.376 L 184.24 336.192 L 190.82 355.968 L 197.4 339.488 L 203.98 339.488 L 210.56 336.192 L 217.14 296.64 L 223.72 349.376 L 230.30 339.488 L 236.88 342.784 L 243.46 336.192 L 250.04 339.488 L 256.62 339.488 L 263.2 339.488 L 269.78 352.672 L 276.36 336.192 L 282.94 309.824 L 289.52 349.376 L 296.10 336.192 L 302.68 349.376 L 309.26 339.488 L 315.84 339.488 L 322.42 336.192 L 329.0 339.488 L 335.58 349.376 L 342.16 349.376 L 348.74 349.376 L 355.32 339.488 L 361.90 349.376 L 368.48 339.488 L 375.06 352.672 L 381.64 336.192 L 388.22 349.376 L 394.8 352.672 L 401.38 336.192 L 407.96 349.376 L 414.54 339.488 L 421.12 336.192 L 427.70 349.376 L 434.28 349.376 L 440.86 352.672 L 447.44 336.192 L 454.02 352.672 L 460.6 352.672 L 467.18 349.376 L 473.76 349.376 L 480.34 349.376 L 486.92 352.672 L 493.50 339.488 L 500.08 355.968 L 506.66 355.968 L 513.24 339.488 L 519.82 355.968 L 526.4 349.376 L 532.98 336.192 L 539.56 339.488 L 546.14 349.376 L 552.72 339.488 L 559.30 349.376 L 565.88 349.376 L 572.46 336.192 L 579.04 336.192 L 585.62 349.376 L 592.2 336.192 L 598.78 336.192 L 605.36 339.488 L 611.94 352.672 L 618.52 336.192 L 625.10 336.192 L 631.68 349.376 L 638.26 349.376 L 644.84 349.376 L 651.42 342.784" fill="none" stroke="#ff0000" stroke-width="2" /></g><g class="series lines"><path d="M 0 339.488 L 6.58 346.08 L 13.16 352.672 L 19.74 336.192 L 26.32 352.672 L 32.90 336.192 L 39.48 336.192 L 46.06 339.488 L 52.64 336.192 L 59.22 336.192 L 65.8 349.376 L 72.38 349.376 L 78.96 296.64 L 85.54 336.192 L 92.12 352.672 L 98.70 339.488 L 105.28 339.488 L 111.86 349.376 L 118.44 349.376 L 125.02 339.488 L 131.6 349.376 L 138.18 349.376 L 144.76 339.488 L 151.34 352.672 L 157.92 349.376 L 164.50 349.376 L 171.08 349.376 L 177.66 339.488 L 184.24 339.488 L 190.82 339.488 L 197.4 352.672 L 203.98 336.192 L 210.56 349.376 L 217.14 349.376 L 223.72 339.488 L 230.30 352.672 L 236.88 349.376 L 243.46 339.488 L 250.04 339.488 L 256.62 349.376 L 263.2 336.192 L 269.78 349.376 L 276.36 339.488 L 282.94 339.488 L 289.52 339.488 L 296.10 339.488 L 302.68 339.488 L 309.26 336.192 L 315.84 349.376 L 322.42 349.376 L 329.0 336.192 L 335.58 339.488 L 342.16 349.376 L 348.74 349.376 L 355.32 336.192 L 361.90 349.376 L 368.48 339.488 L 375.06 339.488 L 381.64 349.376 L 388.22 352.672 L 394.8 339.488 L 401.38 349.376 L 407.96 339.488 L 414.54 349.376 L 421.12 339.488 L 427.70 339.488 L 434.28 349.376 L 440.86 349.376 L 447.44 352.672 L 454.02 352.672 L 460.6 352.672 L 467.18 336.192 L 473.76 352.672 L 480.34 352.672 L 486.92 336.192 L 493.50 352.672 L 500.08 352.672 L 506.66 336.192 L 513.24 336.192 L 519.82 293.344 L 526.4 352.672 L 532.98 336.192 L 539.56 339.488 L 546.14 336.192 L 552.72 349.376 L 559.30 339.488 L 565.88 339.488 L 572.46 336.192 L 579.04 339.488 L 585.62 349.376 L 592.2 349.376 L 598.78 352.672 L 605.36 336.192 L 611.94 339.488 L 618.52 52.736 L 625.10 224.128 L 631.68 290.048 L 638.26 290.048 L 644.84 283.456 L 651.42 290.048" fill="none" stroke="#ff0000" stroke-width="2" /></g><g class="series lines"><path d="M 0 263.68 L 6.58 273.568 L 13.16 280.16 L 19.74 280.16 L 26.32 270.272 L 32.90 286.752 L 39.48 273.568 L 46.06 280.16 L 52.64 280.16 L 59.22 270.272 L 65.8 283.456 L 72.38 270.272 L 78.96 283.456 L 85.54 306.528 L 92.12 296.64 L 98.70 296.64 L 105.28 296.64 L 111.86 296.64 L 118.44 296.64 L 125.02 299.936 L 131.6 290.048 L 138.18 280.16 L 144.76 303.232 L 151.34 306.528 L 157.92 280.16 L 164.50 280.16 L 171.08 280.16 L 177.66 280.16 L 184.24 257.088 L 190.82 273.568 L 197.4 273.568 L 203.98 280.16 L 210.56 280.16 L 217.14 286.752 L 223.72 280.16 L 230.30 286.752 L 236.88 280.16 L 243.46 276.864 L 250.04 273.568 L 256.62 280.16 L 263.2 273.568 L 269.78 270.272 L 276.36 273.568 L 282.94 276.864 L 289.52 280.16 L 296.10 276.864 L 302.68 276.864 L 309.26 276.864 L 315.84 276.864 L 322.42 280.16 L 329.0 283.456 L 335.58 276.864 L 342.16 276.864 L 348.74 273.568 L 355.32 280.16 L 361.90 270.272 L 368.48 280.16 L 375.06 270.272 L 381.64 273.568 L 388.22 273.568 L 394.8 280.16 L 401.38 290.048 L 407.96 280.16 L 414.54 276.864 L 421.12 273.568 L 427.70 286.752 L 434.28 276.864 L 440.86 270.272 L 447.44 280.16 L 454.02 280.16 L 460.6 276.864 L 467.18 273.568 L 473.76 273.568 L 480.34 276.864 L 486.92 286.752 L 493.50 273.568 L 500.08 280.16 L 506.66 270.272 L 513.24 283.456 L 519.82 280.16 L 526.4 273.568 L 532.98 263.68 L 539.56 273.568 L 546.14 276.864 L 552.72 280.16 L 559.30 280.16 L 565.88 280.16 L 572.46 283.456 L 579.04 276.864 L 585.62 273.568 L 592.2 273.568 L 598.78 273.568 L 605.36 191.168 L 611.94 283.456 L 618.52 290.048 L 625.10 313.12 L 631.68 293.344 L 638.26 286.752 L 644.84 280.16 L 651.42 303.232" fill="none" stroke="#ff0000" stroke-width="2" /></g><g class="series lines"><path d="M 0 339.488 L 6.58 352.672 L 13.16 339.488 L 19.74 352.672 L 26.32 349.376 L 32.90 349.376 L 39.48 349.376 L 46.06 349.376 L 52.64 349.376 L 59.22 349.376 L 65.8 349.376 L 72.38 342.784 L 78.96 336.192 L 85.54 336.192 L 92.12 349.376 L 98.70 296.64 L 105.28 336.192 L 111.86 349.376 L 118.44 339.488 L 125.02 349.376 L 131.6 339.488 L 138.18 349.376 L 144.76 336.192 L 151.34 349.376 L 157.92 336.192 L 164.50 349.376 L 171.08 352.672 L 177.66 339.488 L 184.24 349.376 L 190.82 352.672 L 197.4 349.376 L 203.98 336.192 L 210.56 336.192 L 217.14 349.376 L 223.72 349.376 L 230.30 339.488 L 236.88 336.192 L 243.46 339.488 L 250.04 349.376 L 256.62 349.376 L 263.2 339.488 L 269.78 336.192 L 276.36 217.536 L 282.94 339.488 L 289.52 336.192 L 296.10 286.752 L 302.68 349.376 L 309.26 352.672 L 315.84 339.488 L 322.42 352.672 L 329.0 349.376 L 335.58 352.672 L 342.16 339.488 L 348.74 352.672 L 355.32 339.488 L 361.90 336.192 L 368.48 349.376 L 375.06 339.488 L 381.64 349.376 L 388.22 336.192 L 394.8 349.376 L 401.38 349.376 L 407.96 349.376 L 414.54 352.672 L 421.12 339.488 L 427.70 339.488 L 434.28 352.672 L 440.86 352.672 L 447.44 339.488 L 454.02 349.376 L 460.6 336.192 L 467.18 349.376 L 473.76 336.192 L 480.34 336.192 L 486.92 349.376 L 493.50 339.488 L 500.08 349.376 L 506.66 336.192 L 513.24 349.376 L 519.82 336.192 L 526.4 349.376 L 532.98 336.192 L 539.56 339.488 L 546.14 349.376 L 552.72 352.672 L 559.30 349.376 L 565.88 336.192 L 572.46 349.376 L 579.04 352.672 L 585.62 352.672 L 592.2 349.376 L 598.78 336.192 L 605.36 349.376 L 611.94 339.488 L 618.52 339.488 L 625.10 339.488 L 631.68 336.192 L 638.26 339.488 L 644.84 352.672 L 651.42 336.192" fill="none" stroke="#ff0000" stroke-width="2" /></g><g class="series lines"><path d="M 0 273.568 L 6.58 266.976 L 13.16 319.712 L 19.74 283.456 L 26.32 276.864 L 32.90 326.304 L 39.48 313.12 L 46.06 329.6 L 52.64 299.936 L 59.22 299.936 L 65.8 323.008 L 72.38 313.12 L 78.96 286.752 L 85.54 323.008 L 92.12 299.936 L 98.70 316.416 L 105.28 309.824 L 111.86 303.232 L 118.44 293.344 L 125.02 319.712 L 131.6 303.232 L 138.18 296.64 L 144.76 313.12 L 151.34 313.12 L 157.92 286.752 L 164.50 332.896 L 171.08 323.008 L 177.66 329.6 L 184.24 332.896 L 190.82 342.784 L 197.4 319.712 L 203.98 306.528 L 210.56 319.712 L 217.14 316.416 L 223.72 326.304 L 230.30 316.416 L 236.88 336.192 L 243.46 303.232 L 250.04 332.896 L 256.62 336.192 L 263.2 319.712 L 269.78 313.12 L 276.36 332.896 L 282.94 306.528 L 289.52 316.416 L 296.10 303.232 L 302.68 339.488 L 309.26 306.528 L 315.84 309.824 L 322.42 303.232 L 329.0 309.824 L 335.58 309.824 L 342.16 329.6 L 348.74 313.12 L 355.32 332.896 L 361.90 306.528 L 368.48 329.6 L 375.06 303.232 L 381.64 332.896 L 388.22 316.416 L 394.8 326.304 L 401.38 303.232 L 407.96 316.416 L 414.54 306.528 L 421.12 332.896 L 427.70 329.6 L 434.28 316.416 L 440.86 306.528 L 447.44 326.304 L 454.02 342.784 L 460.6 319.712 L 467.18 309.824 L 473.76 313.12 L 480.34 329.6 L 486.92 309.824 L 493.50 323.008 L 500.08 309.824 L 506.66 319.712 L 513.24 336.192 L 519.82 319.712 L 526.4 306.528 L 532.98 306.528 L 539.56 326.304 L 546.14 313.12 L 552.72 313.12 L 559.30 329.6 L 565.88 323.008 L 572.46 299.936 L 579.04 326.304 L 585.62 299.936 L 592.2 309.824 L 598.78 313.12 L 605.36 313.12 L 611.94 319.712 L 618.52 342.784 L 625.10 299.936 L 631.68 346.08 L 638.26 332.896 L 644.84 319.712 L 651.42 346.08" fill="none" stroke="#ff0000" stroke-width="2" /></g></g></g></g></g></g></svg>