<?xml version="1.0" standalone="no"?>
<!DOCTYPE svg PUBLIC "-//W3C//DTD SVG 1.1//EN"
"http://www.w3.org/Graphics/SVG/1.1/DTD/svg11.dtd">
<svg height="600" version="1.1" width="800" xmlns="http://www.w3.org/2000/svg"><g><rect fill="#f9f9f9" height="600" width="800" x="0" y="0" /><g transform="translate(40 40)"><g transform="translate(62 0)"><text fill="#333" font-family="Monaco" font-size="16" x="0" y="0">Charts: 8256Bx5n</text></g><g transform="translate(0 20)"><g transform="translate(62 0)"><g class="axis bottom"><text dy="1em" fill="#666" font-family="Monaco" text-anchor="middle" transform="" x="329.0" y="486.0">Sample Number</text><g class="tick"><line stroke="#eee" stroke-width="1" x1="164.50" x2="164.50" y1="0" y2="452.0" /><text dy="1em" fill="#9c9c9c" font-family="Monaco" text-anchor="middle" x="164.50" y="456.0">1</text></g><g class="tick"><line stroke="#eee" stroke-width="1" x1="329.0" x2="329.0" y1="0" y2="452.0" /><text dy="1em" fill="#9c9c9c" font-family="Monaco" text-anchor="middle" x="329.0" y="456.0">2</text></g><g class="tick"><line stroke="#eee" stroke-width="1" x1="493.50" x2="493.50" y1="0" y2="452.0" /><text dy="1em" fill="#9c9c9c" font-family="Monaco" text-anchor="middle" x="493.50" y="456.0">3</text></g><g class="tick"><line stroke="#eee" stroke-width="1" x1="658" x2="658" y1="0" y2="452.0" /><text dy="1em" fill="#9c9c9c" font-family="Monaco" text-anchor="middle" x="658" y="456.0">4</text></g><g class="tick"><line stroke="#a8a8a8" stroke-width="1" x1="0" x2="0" y1="0" y2="452.0" /><text dy="1em" fill="#9c9c9c" font-family="Monaco" text-anchor="middle" x="0" y="456.0">0</text></g></g><g class="axis left"><text dy="" fill="#666" font-family="Monaco" text-anchor="middle" transform="rotate(270 -40 224)" x="-40" y="224.0">nanoseconds</text><g class="tick"><line stroke="#eee" stroke-width="1" x1="-4" x2="658.0" y1="336.00" y2="336.00" /><text dy="0.32em" fill="#9c9c9c" font-family="Monaco" text-anchor="end" x="-8" y="336.00">100</text></g><g class="tick"><line stroke="#eee" stroke-width="1" x1="-4" x2="658.0" y1="224.0" y2="224.0" /><text dy="0.32em" fill="#9c9c9c" font-family="Monaco" text-anchor="end" x="-8" y="224.0">200</text></g><g class="tick"><line stroke="#eee" stroke-width="1" x1="-4" x2="658.0" y1="112.00" y2="112.00" /><text dy="0.32em" fill="#9c9c9c" font-family="Monaco" text-anchor="end" x="-8" y="112.00">300</text></g><g class="tick"><line stroke="#eee" stroke-width="1" x1="-4" x2="658.0" y1="0" y2="0" /><text dy="0.32em" fill="#9c9c9c" font-family="Monaco" text-anchor="end" x="-8" y="0">400</text></g><g class="tick"><line stroke="#a8a8a8" stroke-width="1" x1="-4" x2="658.0" y1="448" y2="448" /><text dy="0.32em" fill="#9c9c9c" font-family="Monaco" text-anchor="end" x="-8" y="448">0</text></g></g><g><g class="series lines"><path d="M 0 91.840 L 164.50 286.72 L 329.0 320.320 L 493.50 366.2400 L 658 361.7600" fill="none" stroke="#e41a1c" stroke-width="2" /></g></g></g></g></g></g></svg>